<svg version="1.0" xmlns="http://www.w3.org/2000/svg"
 width="1076.000000pt" height="1076.000000pt" viewBox="0 0 1076.000000 1076.000000"
 preserveAspectRatio="xMidYMid meet">
<g transform="translate(0.000000,1076.000000) scale(0.100000,-0.100000)"
fill="#000000" stroke="none">
<path d="M5050 10719 c-1469 -87 -2832 -776 -3784 -1914 -720 -861 -1140
-1904 -1227 -3045 -24 -318 -4 -838 46 -1175 197 -1335 918 -2568 1996 -3414
1116 -874 2541 -1267 3959 -1090 929 116 1806 474 2560 1045 381 288 749 657
1042 1044 1119 1479 1385 3462 696 5189 -354 888 -934 1656 -1703 2256 -137
108 -471 330 -630 421 -155 88 -466 238 -626 302 -739 298 -1535 428 -2329
381z m705 -349 c1211 -103 2304 -608 3151 -1457 860 -862 1365 -1973 1455
-3198 13 -179 7 -649 -11 -810 -69 -630 -223 -1174 -486 -1710 -398 -812
-1010 -1504 -1766 -1999 -1412 -921 -3175 -1069 -4723 -396 -1399 609 -2463
1856 -2845 3335 -98 380 -146 722 -156 1130 -19 715 121 1437 408 2100 330
763 864 1449 1533 1972 430 335 970 623 1499 797 357 119 778 204 1156 235
151 12 644 13 785 1z"/>
<path d="M5290 10143 c0 -3 -11 -197 -25 -431 -14 -233 -23 -427 -20 -431 6
-6 207 -19 214 -14 2 2 10 108 18 235 7 128 14 236 16 241 1 5 21 -33 44 -85
23 -51 76 -164 117 -250 l76 -157 53 -5 c28 -3 82 -7 119 -9 l66 -3 6 71 c11
130 48 796 44 799 -1 2 -51 6 -109 9 l-107 6 -6 -37 c-3 -20 -8 -124 -12 -230
l-7 -192 -32 72 c-18 40 -68 146 -113 235 -78 154 -83 162 -114 167 -57 9
-228 16 -228 9z"/>
<path d="M4690 10088 c-145 -21 -265 -40 -266 -41 -1 -1 26 -195 60 -432 50
-342 65 -430 77 -428 102 11 546 78 551 82 5 6 -18 190 -26 198 -2 2 -77 -7
-167 -21 -90 -13 -165 -24 -165 -23 -1 1 -5 32 -9 68 -8 78 -24 69 163 95 84
12 122 21 122 30 0 17 -21 166 -25 180 -2 8 -40 5 -127 -7 -183 -27 -174 -29
-181 33 -4 28 -5 53 -3 55 1 2 71 13 154 25 174 24 160 9 140 146 -6 47 -16
82 -22 81 -6 -1 -130 -19 -276 -41z"/>
<path d="M3831 9879 c-173 -60 -317 -112 -320 -115 -5 -5 46 -163 60 -186 5
-8 39 0 107 25 l101 35 29 -81 c16 -45 64 -185 107 -312 43 -126 79 -231 80
-233 3 -4 209 70 219 79 4 4 -39 145 -98 314 -58 169 -106 308 -106 310 0 2
44 18 98 36 53 17 100 33 104 35 7 4 -49 183 -61 195 -3 4 -147 -42 -320 -102z"/>
<path d="M6706 9508 c-85 -216 -156 -399 -158 -406 -2 -8 37 -29 106 -57 60
-25 110 -44 111 -42 1 1 28 68 60 150 32 81 64 147 70 147 6 0 67 -23 135 -50
68 -28 127 -47 130 -43 9 11 70 166 70 178 0 6 -59 32 -130 60 -72 27 -130 54
-130 60 0 12 34 102 41 109 3 3 67 -19 142 -49 75 -30 141 -55 145 -55 5 0 24
37 41 83 18 45 35 87 38 93 2 7 -96 51 -249 113 -139 55 -256 101 -260 101 -4
0 -76 -177 -162 -392z"/>
<path d="M3150 9591 c-52 -32 -94 -63 -93 -68 1 -5 66 -116 144 -246 120 -201
143 -245 147 -287 5 -60 -11 -89 -63 -114 -47 -23 -84 -14 -129 30 -19 18 -97
137 -173 264 -76 126 -141 230 -145 230 -12 0 -198 -115 -198 -122 0 -22 292
-487 331 -528 55 -57 128 -96 196 -106 144 -19 351 108 397 243 22 65 20 161
-5 236 -20 59 -293 527 -307 527 -4 0 -50 -27 -102 -59z"/>
<path d="M7606 9473 c-25 -38 -128 -198 -230 -358 -146 -228 -183 -292 -173
-301 6 -7 51 -37 99 -68 l87 -56 47 73 c26 39 65 100 87 135 37 59 41 62 60
49 12 -8 30 -26 41 -40 l19 -26 -42 -131 c-22 -72 -41 -140 -41 -150 0 -12 34
-40 102 -84 l103 -66 13 52 c7 29 27 95 44 146 16 52 33 126 37 165 l6 71 42
8 c59 10 96 31 137 80 33 38 66 117 66 158 0 86 -79 194 -199 274 -79 53 -231
136 -248 136 -7 0 -33 -30 -57 -67z m244 -270 c11 -14 20 -37 20 -50 0 -33
-51 -83 -85 -83 -27 0 -99 33 -110 49 -3 6 15 41 41 80 l46 69 34 -20 c19 -11
43 -31 54 -45z"/>
<path d="M8140 8700 c-162 -171 -295 -314 -295 -319 0 -13 398 -390 412 -391
6 0 41 32 76 71 l65 71 -119 117 -119 116 43 50 44 49 113 -104 112 -105 69
75 69 75 -106 104 -105 104 28 35 c16 20 34 37 40 39 7 3 62 -44 123 -103
l111 -108 70 70 c38 38 68 75 67 82 -3 12 -388 382 -398 382 -3 0 -138 -140
-300 -310z"/>
<path d="M4980 8985 c-973 -111 -1838 -589 -2446 -1351 -642 -806 -907 -1853
-729 -2884 87 -505 315 -1049 613 -1464 282 -392 637 -725 1042 -979 160 -101
467 -252 642 -316 1123 -416 2370 -257 3343 424 307 215 597 496 826 800 375
501 611 1083 694 1715 23 172 31 560 15 746 -91 1108 -677 2104 -1600 2720
-456 304 -940 489 -1510 575 -179 28 -699 35 -890 14z m800 -350 c543 -72
1053 -272 1490 -585 471 -337 871 -825 1094 -1335 193 -443 278 -843 280
-1320 1 -390 -51 -713 -173 -1066 -68 -198 -219 -529 -241 -529 -4 0 -367 226
-807 501 -439 276 -804 503 -810 506 -10 4 -13 -25 -13 -123 l0 -129 -447
-285 c-476 -303 -531 -345 -601 -463 -18 -30 -45 -88 -60 -129 l-27 -73 -3
-468 -3 -468 24 13 c13 7 214 135 447 283 464 295 525 344 595 469 78 140 79
145 85 577 l5 387 712 -447 c392 -245 713 -450 713 -454 0 -13 -115 -160 -213
-275 -283 -328 -705 -642 -1104 -821 -292 -131 -568 -213 -888 -261 -178 -28
-566 -38 -751 -21 -657 62 -1251 303 -1769 717 -60 48 -176 154 -256 234 -542
540 -861 1210 -950 1990 -18 156 -15 518 5 685 48 397 154 750 333 1110 31 61
57 112 59 114 2 2 368 -225 814 -505 l810 -508 0 -420 c0 -478 4 -508 71 -645
30 -61 61 -104 113 -157 69 -72 174 -142 929 -621 l38 -24 -3 473 c-3 466 -3
474 -26 538 -34 95 -104 202 -175 265 -34 31 -256 180 -497 334 l-435 277 -5
194 -5 193 -715 449 c-393 246 -716 451 -717 455 -2 5 23 42 54 83 200 265
461 517 738 715 451 322 1021 531 1595 585 142 13 544 5 690 -15z"/>
<path d="M4130 7228 c0 -778 0 -773 71 -917 74 -150 126 -193 630 -513 240
-153 439 -278 443 -278 3 0 6 201 6 446 0 497 -1 507 -68 644 -28 58 -56 94
-122 159 -71 69 -133 114 -380 270 l-295 187 -3 347 -2 347 -140 0 -140 0 0
-692z"/>
<path d="M6330 7573 l-1 -348 -307 -195 c-347 -219 -418 -279 -485 -407 -74
-141 -77 -169 -77 -666 0 -377 2 -438 14 -434 8 3 213 132 455 287 393 251
448 289 509 355 43 46 83 101 105 147 68 137 67 125 67 906 l0 702 -140 0
-140 0 0 -347z"/>
<path d="M6160 5697 c-507 -323 -557 -363 -628 -506 -70 -139 -73 -167 -70
-663 l3 -437 429 274 c235 151 453 293 482 316 66 51 137 143 176 227 56 123
58 149 56 632 l-3 441 -445 -284z"/>
<path d="M4132 4098 l3 -463 28 -80 c16 -44 45 -107 65 -140 68 -113 129 -159
602 -461 l445 -283 3 437 c2 290 -1 457 -8 497 -6 33 -31 102 -56 153 -75 156
-109 183 -619 508 -242 154 -446 284 -453 288 -11 6 -13 -76 -10 -456z"/>
<path d="M2110 8834 c-47 -42 -85 -81 -85 -86 0 -13 568 -647 577 -645 4 1 84
72 179 157 95 85 188 169 208 186 l35 31 -68 77 c-38 42 -71 76 -75 76 -3 0
-60 -48 -125 -107 -99 -89 -120 -104 -130 -92 -11 15 -428 479 -430 479 -1 0
-39 -34 -86 -76z"/>
<path d="M1775 8455 c-140 -94 -250 -269 -270 -431 -24 -191 116 -393 321
-465 47 -16 77 -20 144 -17 140 6 244 67 346 201 42 56 121 207 138 264 6 19
-16 39 -179 160 -102 76 -190 139 -194 141 -6 2 -186 -229 -214 -274 -6 -10
113 -107 147 -120 7 -3 27 16 45 41 18 25 35 45 37 45 10 0 94 -63 94 -70 0
-4 -13 -26 -30 -48 -68 -94 -166 -124 -262 -80 -153 70 -205 192 -138 325 28
57 102 137 160 174 l25 16 -42 54 c-24 30 -53 67 -65 82 l-23 28 -40 -26z"/>
<path d="M8707 8125 c-187 -134 -343 -247 -348 -252 -5 -5 56 -100 152 -233
89 -124 165 -229 169 -234 8 -8 170 101 170 115 0 3 -43 66 -96 139 -52 73
-94 133 -92 134 2 1 27 19 56 40 29 21 54 37 56 35 2 -2 38 -53 81 -114 43
-60 82 -114 86 -119 8 -9 169 99 169 113 0 4 -38 61 -84 126 l-85 118 46 33
46 33 90 -127 c50 -70 91 -129 93 -131 5 -6 164 112 164 122 0 17 -312 447
-323 446 -7 0 -164 -110 -350 -244z"/>
<path d="M8520 3094 c-89 -119 -163 -221 -165 -228 -3 -9 667 -515 693 -523 7
-2 329 428 338 452 5 11 -135 125 -155 125 -5 0 -50 -56 -100 -125 -51 -68
-96 -127 -100 -129 -7 -5 -48 22 -110 70 -2 2 35 55 83 119 47 63 86 119 86
124 0 10 -145 121 -157 121 -4 -1 -46 -52 -93 -115 -46 -63 -87 -115 -90 -115
-3 0 -25 14 -48 31 l-41 30 60 82 c33 45 75 103 94 128 l35 47 -72 54 c-40 30
-78 57 -85 61 -7 5 -71 -72 -173 -209z"/>
<path d="M1877 3169 c-116 -17 -258 -110 -325 -216 -88 -138 -80 -308 21 -466
46 -70 128 -159 200 -214 71 -55 40 -67 272 110 94 72 171 131 173 132 2 2
-186 253 -209 279 -9 10 -28 -1 -111 -66 l-58 -45 35 -46 c19 -25 35 -49 35
-54 -1 -4 -22 -23 -47 -42 l-46 -34 -24 29 c-95 115 -89 232 17 328 90 81 179
97 266 46 70 -40 137 -127 164 -215 7 -22 14 -43 16 -47 3 -4 46 11 97 32 87
37 92 41 89 67 -5 43 -68 162 -122 230 -116 145 -277 215 -443 192z"/>
<path d="M8041 2555 c-111 -104 -201 -191 -201 -196 0 -9 582 -634 591 -634
10 0 417 379 418 388 1 10 -129 147 -138 147 -3 0 -60 -50 -125 -111 l-119
-110 -49 48 -48 48 110 105 111 105 -69 75 -70 75 -44 -40 c-23 -22 -72 -68
-108 -102 l-66 -63 -39 41 -40 41 114 108 114 107 -21 29 c-11 16 -43 51 -70
78 l-50 48 -201 -187z"/>
<path d="M2333 2323 c-147 -169 -276 -317 -285 -329 -17 -21 -15 -23 165 -180
100 -87 196 -171 213 -187 l32 -27 66 76 c36 41 66 79 66 83 0 5 -54 55 -119
111 l-119 104 88 100 c48 56 144 166 214 246 70 80 125 150 124 156 -3 11
-162 154 -171 154 -3 0 -126 -138 -274 -307z"/>
<path d="M3087 2193 c-285 -488 -307 -535 -307 -656 0 -131 69 -224 218 -295
69 -33 85 -37 157 -37 67 0 89 4 137 28 90 44 147 117 297 376 73 128 132 233
130 235 -8 7 -179 107 -192 112 -10 3 -51 -59 -137 -208 -152 -262 -173 -292
-221 -316 -49 -24 -81 -18 -125 23 -62 59 -54 86 117 381 71 122 131 229 135
237 4 11 -21 31 -90 71 -95 56 -111 63 -119 49z"/>
<path d="M7555 2151 c-27 -10 -66 -26 -85 -36 -48 -24 -198 -127 -244 -168
l-39 -33 223 -354 c122 -195 226 -359 230 -364 10 -10 199 104 200 121 0 7
-36 69 -80 139 -44 69 -78 129 -75 134 10 16 66 32 90 26 14 -4 62 -42 108
-85 134 -126 117 -122 236 -49 55 35 101 68 101 74 0 6 -9 15 -20 20 -10 5
-62 49 -114 97 -94 87 -166 137 -197 137 -14 0 -15 5 -3 52 18 66 17 73 -2
137 -11 38 -29 67 -62 100 -72 71 -164 89 -267 52z m80 -207 c20 -8 45 -55 45
-85 0 -21 -79 -109 -98 -109 -13 0 -94 139 -87 150 10 16 78 49 102 50 12 0
29 -3 38 -6z"/>
<path d="M6780 1763 c-135 -53 -247 -97 -249 -99 -5 -5 298 -795 309 -807 10
-11 210 63 217 79 2 7 -21 76 -51 155 -30 79 -52 146 -48 150 4 3 63 28 132
54 69 26 127 49 129 51 1 1 -13 45 -34 98 l-37 95 -61 -24 c-34 -13 -96 -36
-138 -53 l-75 -29 -23 59 c-13 33 -21 61 -19 63 2 2 64 27 138 56 74 28 138
54 142 58 10 9 -63 191 -76 190 -6 -1 -121 -44 -256 -96z"/>
<path d="M3805 1788 c-22 -60 -55 -164 -55 -174 0 -7 44 -27 98 -45 53 -17 99
-33 101 -35 1 -1 -42 -139 -98 -306 -56 -167 -101 -308 -101 -313 0 -9 220
-89 226 -82 1 1 48 141 104 312 56 171 103 311 104 312 1 2 49 -13 106 -32 57
-19 104 -34 105 -32 1 1 15 40 30 87 15 47 30 90 32 96 3 8 -114 51 -314 118
-175 58 -322 106 -326 106 -4 0 -10 -6 -12 -12z"/>
<path d="M4567 1534 c-30 -202 -110 -824 -107 -828 7 -6 560 -79 565 -74 2 2
10 46 16 97 10 71 10 94 1 100 -7 4 -80 16 -162 26 -83 10 -152 21 -154 24 -5
8 11 122 18 129 3 3 69 -3 146 -13 77 -10 142 -16 145 -14 4 5 35 192 31 196
0 0 -65 10 -144 21 -79 11 -146 22 -148 25 -3 2 -2 28 2 56 8 60 -5 58 184 31
74 -10 136 -17 138 -15 4 3 32 199 29 201 -1 0 -112 16 -247 34 -135 17 -259
34 -276 37 -30 5 -31 3 -37 -33z"/>
<path d="M5842 1523 l-63 -4 6 -67 c9 -111 25 -335 25 -355 0 -11 -33 32 -73
94 -40 63 -102 158 -138 212 l-64 97 -100 -5 c-167 -10 -163 -8 -158 -58 5
-61 53 -778 53 -805 0 -21 2 -22 93 -16 150 9 134 -16 121 196 -7 101 -15 212
-18 248 l-6 65 26 -45 c22 -36 275 -433 278 -436 4 -3 230 17 234 21 3 2 -8
198 -24 435 l-28 430 -51 -2 c-27 -1 -78 -3 -113 -5z"/>
</g>
</svg>
