
<svg version="1.0" xmlns="http://www.w3.org/2000/svg"
 width="1076.000000pt" height="1075.000000pt" viewBox="0 0 1076.000000 1075.000000"
 preserveAspectRatio="xMidYMid meet">

<g transform="translate(0.000000,1075.000000) scale(0.100000,-0.100000)"
fill="#000000" stroke="none">
<path d="M5061 10699 c-1038 -63 -2040 -432 -2876 -1059 -685 -515 -1223
-1165 -1600 -1935 -718 -1465 -722 -3196 -11 -4661 203 -418 427 -762 732
-1129 130 -156 445 -473 604 -609 329 -280 684 -517 1065 -711 946 -481 2020
-667 3085 -534 1408 175 2692 912 3565 2044 640 830 1012 1806 1095 2869 13
167 13 615 0 787 -111 1447 -791 2770 -1905 3704 -1043 875 -2387 1316 -3754
1234z m705 -349 c664 -53 1265 -221 1859 -520 488 -245 861 -511 1248 -890
351 -342 624 -694 861 -1108 692 -1209 843 -2658 416 -3997 -101 -315 -291
-735 -462 -1020 -1003 -1672 -2847 -2612 -4768 -2429 -1501 142 -2856 956
-3697 2219 -666 999 -946 2201 -793 3402 50 392 155 799 307 1188 73 187 250
546 358 725 844 1400 2269 2289 3895 2429 140 12 627 13 776 1z"/>
<path d="M5365 10099 c-144 -24 -239 -110 -286 -259 -25 -75 -30 -271 -10
-353 30 -126 113 -227 216 -266 119 -45 283 -35 413 24 105 48 102 41 102 252
l0 183 -180 0 -180 0 0 -75 0 -75 70 0 70 0 0 -69 c0 -51 -4 -72 -16 -82 -26
-21 -154 -25 -193 -5 -73 38 -108 149 -98 315 9 172 63 251 172 251 31 0 62
-7 81 -19 30 -18 64 -74 64 -105 0 -14 15 -16 105 -16 58 0 105 3 105 8 0 4
-7 31 -14 60 -19 70 -57 133 -101 166 -71 54 -214 84 -320 65z"/>
<path d="M4493 9996 c-155 -34 -284 -64 -288 -67 -4 -4 171 -851 179 -866 2
-3 589 126 593 131 3 2 -3 39 -12 81 -16 70 -19 76 -39 71 -101 -25 -352 -76
-361 -72 -11 4 -52 192 -44 201 3 2 72 19 155 36 82 18 153 35 158 40 7 6 -16
134 -27 145 -4 4 -266 -48 -309 -62 -13 -4 -19 9 -33 73 -9 43 -19 85 -21 93
-3 13 31 23 181 54 101 22 189 42 194 46 14 8 -18 160 -33 159 -6 -1 -138 -29
-293 -63z"/>
<path d="M6121 9599 l-260 -394 107 -27 c58 -15 110 -25 114 -22 4 3 24 34 44
70 20 36 42 67 48 69 6 2 72 -11 146 -29 l135 -33 5 -81 c3 -45 10 -86 15 -91
11 -10 204 -55 210 -49 2 2 -20 208 -50 458 -30 250 -55 460 -55 466 0 6 -35
19 -78 28 -43 9 -87 19 -99 22 -19 5 -52 -40 -282 -387z m314 -51 c6 -113 5
-138 -6 -138 -39 2 -164 38 -162 48 1 6 35 65 74 132 48 80 75 117 79 108 4
-7 11 -75 15 -150z"/>
<path d="M3845 9817 c-49 -23 -95 -45 -101 -49 -8 -6 47 -401 89 -635 2 -13 3
-23 1 -23 -1 0 -95 112 -208 249 -113 138 -209 252 -213 254 -11 6 -214 -85
-211 -95 5 -13 622 -678 630 -678 11 0 191 81 202 90 4 5 -10 198 -33 432 -45
459 -49 498 -59 497 -4 0 -47 -19 -97 -42z"/>
<path d="M6953 9367 l-202 -392 96 -48 c52 -27 96 -47 98 -45 1 2 58 111 126
243 l124 240 11 -245 c7 -135 12 -277 13 -315 l1 -71 94 -49 c52 -28 96 -48
99 -45 3 3 95 181 205 395 l201 390 -95 48 c-53 27 -97 47 -98 45 -2 -2 -56
-106 -120 -233 -65 -126 -121 -234 -125 -238 -4 -4 -11 79 -15 185 -3 106 -9
247 -13 313 l-6 121 -91 47 c-50 26 -93 47 -96 47 -3 0 -96 -177 -207 -393z"/>
<path d="M5265 8983 c-598 -23 -1167 -184 -1675 -476 -932 -535 -1592 -1477
-1769 -2527 -55 -321 -65 -759 -26 -1060 74 -574 269 -1096 586 -1570 129
-193 245 -335 414 -509 605 -621 1364 -987 2245 -1082 168 -19 563 -16 745 5
274 31 588 103 825 189 1232 446 2133 1519 2349 2797 38 223 46 330 46 620 0
306 -13 443 -61 690 -300 1525 -1545 2694 -3082 2895 -115 15 -447 37 -502 33
-14 -1 -56 -3 -95 -5z m565 -372 c278 -41 515 -103 755 -198 803 -317 1454
-943 1804 -1735 135 -304 221 -628 262 -988 16 -135 16 -514 0 -650 -40 -352
-123 -669 -256 -976 -55 -127 -136 -284 -148 -284 -7 0 -1657 1031 -1685 1053
-9 7 120 86 463 285 l475 275 0 582 0 581 -500 288 c-348 201 -505 286 -518
281 -9 -3 -236 -132 -504 -287 l-488 -280 0 -583 0 -583 488 -282 c268 -155
491 -286 496 -290 7 -7 -42 -106 -76 -153 -12 -16 -53 6 -506 268 -272 157
-498 285 -502 285 -5 0 -233 -130 -507 -288 l-498 -288 -3 -581 -2 -581 505
-291 506 -292 504 292 505 291 2 520 3 519 827 -518 c455 -285 827 -522 828
-526 0 -14 -120 -167 -228 -289 -446 -507 -1067 -872 -1736 -1022 -385 -87
-850 -100 -1236 -35 -864 145 -1627 622 -2139 1337 -634 886 -783 2038 -394
3052 45 118 192 430 202 430 3 0 173 -105 376 -233 l370 -233 5 -547 5 -547
495 -286 c272 -158 500 -287 506 -287 6 0 235 129 508 288 l496 289 0 581 0
582 -492 284 c-271 156 -498 285 -505 287 -8 2 -175 -89 -373 -203 -198 -114
-364 -205 -368 -203 -25 10 -832 521 -832 526 0 11 104 147 184 241 526 622
1321 1047 2116 1130 58 6 119 13 135 15 17 3 145 3 285 1 187 -3 291 -9 390
-24z m-1739 -1824 c38 -29 50 -87 25 -123 -8 -11 -125 -83 -260 -160 l-245
-139 -1 -283 c0 -312 -3 -328 -60 -352 -24 -10 -36 -10 -60 0 -60 25 -60 22
-60 395 l0 340 217 125 c119 69 248 144 287 167 74 43 127 53 157 30z m2223
-18 c14 -17 26 -39 26 -50 0 -52 -26 -73 -274 -214 l-245 -140 -1 -283 c0
-310 -3 -328 -58 -351 -37 -16 -77 -5 -102 26 -19 25 -20 42 -20 367 l0 342
288 166 c321 187 339 193 386 137z m-1118 -1894 c35 -24 48 -66 32 -105 -12
-30 -45 -52 -258 -174 l-245 -141 -5 -290 c-3 -160 -9 -298 -13 -307 -22 -44
-93 -62 -133 -33 -42 29 -44 54 -42 400 l3 329 290 167 c296 171 329 184 371
154z"/>
<path d="M3123 1617 l-202 -392 96 -48 c52 -27 96 -47 97 -45 2 2 56 108 122
235 65 128 122 233 125 233 3 0 9 -87 13 -192 3 -106 9 -245 13 -309 l6 -115
95 -50 c52 -27 96 -44 99 -39 2 6 93 183 203 395 l199 385 -96 48 c-52 27 -96
47 -98 45 -1 -2 -58 -111 -126 -243 l-124 -240 -11 245 c-7 135 -12 277 -13
315 l-1 70 -93 48 c-50 26 -94 48 -97 47 -3 0 -96 -177 -207 -393z"/>
<path d="M6800 1766 c-66 -30 -96 -49 -98 -62 -3 -23 84 -904 90 -910 3 -2 53
17 111 43 93 40 106 49 102 67 -3 12 -25 152 -50 311 -25 160 -47 298 -49 308
-2 9 -3 17 -1 17 2 0 409 -491 421 -508 5 -7 214 92 212 99 -7 17 -624 679
-633 678 -5 0 -53 -20 -105 -43z"/>
<path d="M4054 1603 c3 -21 29 -231 57 -468 28 -236 51 -430 52 -431 6 -3 178
-44 187 -44 6 0 128 177 271 393 l260 392 -108 26 c-60 14 -111 24 -115 22 -3
-2 -23 -33 -43 -69 -20 -36 -42 -67 -48 -69 -7 -2 -73 10 -147 28 l-135 32 -5
82 c-3 45 -9 85 -13 90 -8 7 -181 52 -205 53 -10 0 -12 -10 -8 -37z m344 -382
c41 -11 75 -21 77 -23 2 -2 -30 -61 -72 -131 -42 -71 -79 -124 -83 -120 -4 4
-11 72 -15 151 -6 116 -4 142 7 142 7 0 46 -9 86 -19z"/>
<path d="M6036 1519 c-149 -33 -272 -61 -274 -63 -4 -5 28 -156 33 -156 2 0
88 18 190 41 103 22 189 38 192 35 7 -7 42 -156 43 -183 0 -19 -9 -24 -77 -38
-164 -36 -234 -53 -240 -58 -4 -5 7 -71 24 -130 6 -21 -8 -23 200 22 l132 29
16 -77 c9 -42 19 -83 21 -92 3 -13 -28 -22 -181 -54 -102 -22 -190 -42 -196
-46 -6 -3 -3 -34 7 -83 16 -70 19 -77 38 -72 12 2 143 30 291 62 149 31 274
60 278 64 4 4 -33 195 -83 426 -49 230 -90 422 -90 427 0 14 -58 5 -324 -54z"/>
<path d="M5183 1450 c-72 -13 -154 -46 -202 -80 l-41 -30 0 -185 0 -185 180 0
180 0 0 75 0 75 -70 0 -70 0 0 69 c0 85 9 94 100 99 156 9 218 -85 208 -318
-7 -180 -61 -260 -174 -260 -71 0 -114 30 -134 93 l-15 47 -102 0 c-57 0 -103
-3 -103 -7 0 -5 7 -32 14 -61 43 -160 153 -235 346 -236 186 0 305 87 361 264
25 75 30 271 10 353 -30 126 -113 228 -216 266 -68 26 -192 35 -272 21z"/>
</g>
</svg>
