<svg version="1.0" xmlns="http://www.w3.org/2000/svg"
 width="1074.000000pt" height="1076.000000pt" viewBox="0 0 1074.000000 1076.000000"
 preserveAspectRatio="xMidYMid meet">
<g transform="translate(0.000000,1076.000000) scale(0.100000,-0.100000)"
fill="#000000" stroke="none">
<path d="M5115 10714 c-762 -42 -1451 -224 -2125 -561 -357 -179 -642 -360
-939 -597 -622 -497 -1098 -1085 -1454 -1796 -305 -609 -472 -1191 -544 -1890
-23 -229 -23 -761 1 -990 93 -916 374 -1711 865 -2455 310 -469 731 -924 1178
-1272 722 -562 1595 -935 2498 -1068 455 -67 994 -72 1455 -14 919 115 1792
470 2535 1029 1170 881 1927 2193 2099 3640 54 453 45 1015 -24 1450 -162
1016 -586 1924 -1260 2700 -137 158 -425 441 -581 571 -850 711 -1841 1127
-2944 1234 -155 15 -617 27 -760 19z m805 -368 c838 -103 1544 -361 2220 -811
309 -207 553 -408 808 -669 378 -388 663 -788 907 -1278 789 -1583 678 -3458
-292 -4943 -344 -526 -811 -1007 -1328 -1370 -1182 -828 -2661 -1102 -4062
-754 -639 159 -1274 462 -1798 858 -349 264 -694 605 -961 951 -457 591 -793
1326 -938 2050 -75 373 -100 660 -93 1080 6 366 25 560 88 880 276 1408 1162
2642 2419 3369 599 347 1318 577 2000 640 63 6 131 13 150 15 19 2 195 3 390
1 253 -2 394 -7 490 -19z"/>
<path d="M5335 10133 l-90 -4 -54 -155 c-29 -85 -55 -153 -57 -151 -2 1 -35
67 -74 146 l-71 143 -132 -7 c-73 -4 -134 -9 -136 -11 -2 -2 64 -116 146 -253
l151 -249 10 -171 c5 -95 12 -174 14 -177 3 -2 57 -1 122 2 100 6 116 9 112
23 -3 9 -8 91 -11 182 l-7 165 126 252 c69 139 126 256 126 262 0 5 -19 9 -42
8 -24 -1 -84 -4 -133 -5z"/>
<path d="M6281 10003 c-81 -305 -201 -789 -198 -797 5 -12 216 -70 224 -62 3
2 18 58 34 123 17 65 34 134 40 155 l9 36 132 -34 c72 -19 137 -34 144 -34 10
0 54 147 54 182 0 9 -47 26 -132 47 -73 19 -136 36 -139 37 -10 5 22 124 33
124 5 0 72 -16 150 -35 77 -20 143 -34 145 -31 5 5 53 189 50 192 -4 4 -513
134 -525 134 -6 0 -16 -17 -21 -37z"/>
<path d="M4240 9993 c-82 -14 -340 -95 -340 -107 0 -12 212 -821 216 -825 5
-6 214 46 223 54 2 3 -14 74 -35 159 l-40 155 38 6 c56 10 78 -10 138 -118 29
-52 62 -107 75 -123 l23 -29 118 29 c66 16 121 30 123 32 3 2 -5 14 -16 27
-12 12 -51 74 -87 139 -39 67 -85 133 -109 155 l-42 39 22 33 c89 132 25 323
-121 366 -47 14 -130 18 -186 8z m83 -213 c70 -55 24 -150 -78 -162 -27 -3
-28 0 -50 78 l-22 82 31 10 c50 16 91 13 119 -8z"/>
<path d="M7097 9738 c-13 -29 -95 -201 -181 -381 -86 -180 -156 -332 -156
-338 0 -13 202 -111 210 -102 4 5 36 69 71 143 35 74 64 137 66 139 7 10 74
-44 79 -65 3 -13 -3 -75 -15 -136 -34 -179 -39 -165 84 -226 58 -28 109 -52
114 -52 5 0 9 18 9 39 0 21 10 92 22 157 15 80 20 139 17 179 l-6 61 50 17
c100 36 161 125 161 237 0 138 -119 242 -394 344 -53 20 -99 36 -102 36 -2 0
-16 -24 -29 -52z m253 -257 c25 -20 33 -35 33 -59 0 -34 -32 -77 -65 -88 -19
-6 -114 21 -122 35 -3 4 11 42 31 83 34 74 36 76 63 67 15 -6 42 -22 60 -38z"/>
<path d="M3465 9724 c-55 -24 -104 -45 -110 -47 -12 -4 334 -787 351 -794 11
-4 191 71 207 86 6 6 -303 719 -340 785 -7 12 -25 7 -108 -30z"/>
<path d="M2745 9329 c-55 -39 -106 -74 -114 -78 -10 -6 15 -99 119 -442 73
-239 133 -435 135 -437 5 -5 205 130 205 138 0 3 -13 46 -30 95 -16 49 -30 94
-30 100 0 11 29 33 130 98 25 16 26 15 104 -49 43 -35 84 -64 90 -64 17 0 208
130 204 140 -4 9 -700 570 -708 569 -3 0 -50 -32 -105 -70z"/>
<path d="M7711 9009 l-261 -352 227 -168 c125 -93 232 -169 237 -169 6 0 23
17 38 38 14 20 41 56 58 79 l31 42 -136 101 -136 100 42 55 c27 36 46 52 53
47 132 -101 218 -162 228 -161 13 0 118 140 118 156 -1 4 -52 46 -115 93 -63
46 -115 86 -115 88 0 2 14 23 31 47 l32 44 76 -56 c42 -31 100 -74 129 -96 29
-22 54 -38 56 -36 26 33 116 157 116 162 0 4 -403 309 -437 330 -7 4 -106
-121 -272 -344z"/>
<path d="M5180 8989 c-757 -39 -1476 -314 -2077 -795 -119 -96 -367 -336 -473
-459 -606 -705 -918 -1616 -870 -2542 27 -504 139 -945 355 -1391 249 -512
592 -938 1037 -1284 543 -423 1174 -676 1873 -749 177 -19 569 -16 745 5 289
34 522 86 781 175 1052 359 1891 1198 2250 2251 89 258 141 491 175 780 21
176 24 568 5 745 -123 1170 -759 2165 -1773 2773 -129 78 -414 214 -568 270
-355 132 -696 201 -1088 222 -103 5 -196 9 -207 8 -11 0 -85 -4 -165 -9z m470
-349 c1317 -120 2427 -999 2839 -2247 120 -365 168 -701 158 -1107 -10 -399
-76 -729 -217 -1091 -51 -131 -156 -354 -183 -389 -13 -18 -55 7 -794 470
l-781 489 -4 305 c-4 297 -5 307 -32 395 -46 154 -85 269 -198 590 -60 170
-127 369 -148 441 -76 261 -138 641 -147 907 -6 167 -6 167 16 167 36 0 77 27
91 59 13 32 6 180 -11 237 -12 38 -64 88 -108 103 -54 18 -1463 15 -1514 -3
-86 -31 -115 -87 -119 -235 l-3 -102 33 -30 c20 -18 43 -29 62 -29 l30 0 0
-83 c0 -156 -54 -564 -106 -797 -28 -124 -101 -369 -131 -436 l-18 -42 -832
522 -831 521 17 28 c91 147 412 486 606 641 508 406 1121 655 1760 715 132 12
432 13 565 1z m-640 -1198 c0 -71 -11 -245 -25 -388 -59 -615 -88 -758 -250
-1255 -51 -158 -106 -341 -122 -406 l-28 -118 0 -585 c0 -322 4 -845 9 -1163
l8 -577 -146 0 -146 0 0 1149 c0 1234 -1 1212 51 1371 12 36 66 178 119 315
135 345 165 433 215 640 79 321 132 684 142 973 l6 172 84 0 83 0 0 -128z
m-1627 -1023 c474 -297 863 -542 864 -543 2 -1 -24 -83 -58 -182 -115 -343
-103 -168 -107 -1524 -2 -872 0 -1199 8 -1238 15 -67 75 -134 135 -151 55 -15
2244 -15 2298 0 49 13 105 63 128 114 17 37 19 85 19 748 0 462 3 708 10 705
17 -5 1369 -853 1369 -858 2 -17 -205 -265 -318 -383 -278 -286 -543 -483
-886 -657 -331 -168 -654 -268 -1050 -327 -171 -25 -657 -25 -835 0 -865 122
-1616 547 -2149 1217 -729 915 -913 2163 -479 3240 51 126 174 380 183 380 3
0 394 -243 868 -541z"/>
<path d="M2145 8783 c-86 -31 -147 -73 -240 -167 -84 -84 -186 -209 -184 -224
2 -13 597 -577 612 -580 24 -5 221 192 277 275 133 199 118 397 -42 569 -86
91 -179 136 -291 141 -61 3 -95 -1 -132 -14z m171 -248 c51 -30 121 -106 141
-152 31 -75 10 -166 -55 -243 l-30 -34 -43 39 c-24 21 -104 96 -177 167 -148
144 -146 139 -71 198 81 65 154 72 235 25z"/>
<path d="M8359 8529 c-162 -149 -304 -281 -317 -293 l-22 -22 196 -212 196
-213 71 64 c39 35 72 68 74 74 2 6 -46 64 -106 129 l-110 119 47 48 47 49 105
-111 105 -110 73 67 c40 37 72 70 72 74 0 3 -44 54 -99 113 l-98 107 41 39 41
39 29 -33 c16 -17 65 -70 107 -116 l78 -83 38 30 c21 17 56 49 78 71 l39 41
-45 48 c-25 26 -108 115 -184 197 -76 83 -144 151 -150 153 -7 2 -144 -119
-306 -269z"/>
<path d="M2035 2590 l-299 -299 15 -27 c7 -16 64 -78 124 -138 168 -170 274
-222 430 -214 64 3 95 11 146 35 92 43 199 145 241 231 31 62 33 74 33 167 0
88 -3 107 -27 158 -33 71 -97 153 -180 233 -53 52 -174 154 -181 154 -1 0
-137 -135 -302 -300z m390 -41 c73 -82 91 -159 55 -235 -25 -50 -116 -139
-165 -159 -79 -34 -178 -10 -245 60 l-34 35 169 170 c93 94 173 170 176 170 4
0 23 -19 44 -41z"/>
<path d="M8190 2689 l-193 -201 34 -32 c19 -18 160 -155 315 -304 l281 -271
135 137 c187 191 272 282 267 285 -2 1 -36 33 -76 71 l-71 67 -119 -121 -118
-121 -47 48 -47 48 99 105 c55 58 99 110 100 115 0 6 -32 39 -71 74 l-71 64
-107 -107 -107 -106 -39 40 -39 40 112 113 112 112 -73 73 c-40 39 -75 72 -78
72 -3 0 -92 -90 -199 -201z"/>
<path d="M7653 2222 c-132 -93 -220 -162 -218 -170 9 -25 498 -703 505 -700
21 8 459 324 460 331 0 10 -109 167 -116 167 -2 0 -63 -43 -135 -95 -73 -52
-136 -92 -140 -90 -4 3 -23 27 -43 55 l-35 49 114 81 c63 45 117 86 121 91 5
9 -38 78 -89 143 l-23 28 -119 -85 c-88 -63 -123 -83 -132 -75 -24 20 -56 80
-46 87 61 41 243 174 243 178 0 9 -111 163 -118 163 -4 0 -107 -71 -229 -158z"/>
<path d="M2790 1894 c-184 -157 -336 -289 -338 -294 -2 -4 35 -33 81 -63 132
-86 113 -85 200 -5 43 39 83 68 91 65 7 -3 45 -26 84 -50 l70 -46 -29 -98
c-16 -54 -29 -102 -29 -106 0 -9 195 -137 208 -137 5 0 62 192 127 428 65 235
120 432 122 437 3 12 -218 155 -238 154 -8 0 -165 -129 -349 -285z"/>
<path d="M7049 1867 c-64 -23 -266 -125 -302 -152 -17 -13 -8 -36 159 -402 98
-213 178 -389 179 -391 5 -6 215 92 215 101 0 4 -29 71 -65 148 l-64 140 37
16 c33 14 39 14 67 -2 16 -9 55 -48 85 -86 30 -38 71 -85 91 -104 l35 -35 110
51 c60 28 111 53 114 56 3 2 -5 12 -17 21 -13 9 -62 64 -111 122 -48 58 -109
119 -134 135 -32 20 -45 35 -41 45 40 102 35 184 -17 262 -49 72 -89 93 -189
96 -70 2 -98 -2 -152 -21z m140 -213 c28 -35 26 -76 -4 -112 -28 -33 -82 -60
-95 -46 -4 5 -22 39 -38 76 -32 72 -31 77 19 97 48 19 96 13 118 -15z"/>
<path d="M3564 1453 c-93 -218 -170 -399 -172 -403 -3 -7 218 -104 223 -98 7
9 335 789 335 796 0 5 -35 24 -77 42 -43 18 -92 39 -109 46 l-31 13 -169 -396z"/>
<path d="M6310 1603 c-146 -36 -266 -66 -267 -67 -3 -2 199 -839 204 -845 3
-4 233 49 233 54 0 2 -16 69 -35 149 -19 81 -35 152 -35 160 0 8 49 24 141 45
90 21 139 37 136 45 -2 6 -12 49 -22 94 -10 46 -23 86 -29 88 -6 2 -72 -11
-147 -29 l-136 -33 -12 59 c-7 33 -9 63 -4 67 4 4 69 22 143 40 74 18 138 35
142 39 6 5 -35 188 -44 195 -1 2 -122 -26 -268 -61z"/>
<path d="M4022 1248 c-66 -267 -99 -414 -92 -418 6 -4 56 -17 111 -30 75 -18
102 -21 108 -12 4 6 22 75 41 152 32 131 35 140 58 140 13 0 37 -13 53 -29 28
-29 29 -32 29 -134 0 -57 3 -124 6 -149 l6 -44 112 -27 c124 -31 141 -32 130
-15 -4 7 -11 89 -14 183 -5 130 -10 177 -23 202 -22 41 -22 40 9 47 43 11 111
88 128 147 30 98 16 168 -47 236 -49 53 -109 85 -210 113 -87 24 -229 50 -273
50 l-30 0 -102 -412z m383 163 c16 -9 37 -29 45 -44 14 -25 13 -30 -5 -65 -24
-45 -69 -60 -131 -43 l-41 11 20 84 21 85 30 -6 c17 -3 44 -13 61 -22z"/>
<path d="M4790 1501 c0 -4 55 -122 121 -262 l121 -254 -6 -176 -7 -176 32 -7
c17 -3 71 -6 119 -6 l88 0 7 176 7 176 155 245 c118 187 152 248 141 254 -7 5
-54 9 -104 9 -50 0 -105 3 -121 6 -28 6 -29 4 -99 -145 l-71 -152 -57 154 -57
154 -97 6 c-130 9 -172 9 -172 -2z"/>
</g>
</svg>
