
<svg version="1.0" xmlns="http://www.w3.org/2000/svg"
 width="1079.000000pt" height="1080.000000pt" viewBox="0 0 1079.000000 1080.000000"
 preserveAspectRatio="xMidYMid meet">

<g transform="translate(0.000000,1080.000000) scale(0.100000,-0.100000)"
fill="#000000" stroke="none">
<path d="M5130 10740 c-1059 -51 -2087 -420 -2935 -1056 -294 -220 -676 -580
-895 -844 -738 -888 -1160 -1931 -1241 -3069 -15 -212 -6 -735 15 -931 132
-1187 626 -2256 1439 -3114 878 -928 2032 -1499 3317 -1642 195 -21 738 -30
940 -15 715 54 1364 231 1989 542 551 274 972 578 1411 1018 339 339 572 636
807 1026 800 1329 978 2962 483 4445 -460 1377 -1497 2539 -2810 3146 -653
302 -1292 458 -2022 494 -221 11 -267 11 -498 0z m780 -365 c471 -52 883 -154
1310 -322 1281 -504 2319 -1542 2823 -2823 174 -443 277 -871 329 -1370 20
-191 17 -775 -5 -968 -93 -821 -357 -1561 -794 -2227 -570 -868 -1407 -1548
-2363 -1920 -859 -334 -1776 -426 -2680 -269 -306 53 -686 160 -985 279 -150
59 -484 221 -630 304 -672 386 -1254 930 -1680 1571 -155 234 -224 355 -346
605 -113 233 -170 373 -249 615 -507 1533 -230 3229 738 4527 845 1132 2115
1857 3502 1998 221 22 233 23 570 20 207 -2 365 -9 460 -20z"/>
<path d="M5230 10303 c-19 -2 -120 -4 -225 -5 l-190 -3 1 -50 c1 -27 2 -71 3
-97 l1 -48 160 0 160 0 1 -102 c0 -57 2 -121 4 -143 1 -22 4 -146 5 -275 2
-129 6 -264 9 -300 l6 -65 60 1 c33 1 91 2 128 3 l68 1 -5 88 c-3 48 -8 248
-12 445 l-6 357 109 1 c93 1 192 5 215 8 4 1 5 20 3 44 -2 23 -4 66 -4 95 l-1
54 -227 -4 c-126 -1 -244 -4 -263 -5z"/>
<path d="M4400 10214 c-52 -17 -371 -111 -537 -158 -62 -17 -115 -34 -118 -38
-3 -3 13 -68 35 -144 23 -77 61 -206 85 -289 175 -605 175 -605 186 -605 5 0
46 11 91 24 46 13 171 50 278 81 107 32 224 65 258 75 35 10 67 22 72 26 4 5
-4 49 -18 97 l-26 88 -30 -7 c-17 -4 -120 -33 -228 -65 -108 -33 -201 -59
-206 -59 -7 0 -71 206 -76 244 0 5 64 29 144 53 80 23 168 50 196 58 l51 16
-24 87 c-14 48 -26 88 -27 90 -3 2 -181 -47 -299 -84 -43 -13 -84 -24 -91 -24
-10 0 -64 162 -69 209 -2 14 13 20 213 77 221 62 251 74 246 92 -29 105 -50
172 -55 171 -3 -1 -26 -7 -51 -15z"/>
<path d="M6023 9731 c-172 -258 -315 -475 -318 -483 -5 -12 22 -21 122 -46 70
-17 131 -29 135 -26 4 3 29 43 55 89 26 47 52 85 57 85 26 0 342 -83 347 -91
3 -6 7 -38 8 -72 2 -66 8 -128 13 -131 9 -6 254 -63 259 -60 3 2 2 31 -2 66
-5 35 -33 281 -64 548 -30 267 -59 496 -63 509 -6 21 -19 27 -102 46 -52 12
-104 25 -115 28 -17 6 -61 -55 -332 -462z m368 67 c0 -40 2 -82 4 -93 1 -11 6
-66 9 -122 5 -79 3 -103 -6 -103 -20 1 -208 47 -214 52 -6 6 188 338 199 338
4 0 7 -33 8 -72z"/>
<path d="M7302 9858 c-52 -85 -512 -902 -512 -908 0 -10 62 -48 190 -117 31
-16 26 -23 132 167 45 80 82 147 84 148 4 6 123 -63 127 -73 3 -9 -5 -180 -16
-352 l-5 -72 115 -65 c64 -36 119 -66 123 -66 4 0 11 75 14 168 3 92 8 196 11
232 3 36 5 73 5 83 0 14 9 17 50 17 116 0 220 75 280 203 37 76 40 150 10 230
-39 105 -109 164 -370 312 -85 48 -169 96 -187 106 l-31 19 -20 -32z m304
-359 c77 -52 89 -117 38 -205 -39 -68 -94 -92 -159 -70 -38 14 -185 95 -185
103 0 6 90 166 127 226 l23 37 58 -32 c31 -17 76 -44 98 -59z"/>
<path d="M3105 9705 c-68 -16 -152 -57 -225 -111 -69 -50 -132 -139 -155 -218
-31 -105 -13 -251 46 -368 84 -166 193 -296 296 -351 106 -57 240 -66 351 -25
83 30 212 119 277 190 50 56 109 156 117 199 2 9 -49 100 -111 203 -86 140
-119 185 -130 181 -17 -7 -340 -203 -355 -216 -9 -8 73 -149 86 -149 4 0 31
15 60 34 101 63 91 64 137 -13 23 -38 41 -77 41 -85 0 -26 -74 -100 -125 -125
-72 -36 -139 -33 -203 8 -60 38 -100 85 -170 200 -126 206 -119 352 21 417 81
37 134 30 193 -28 l32 -30 101 63 c56 35 101 67 101 71 0 16 -75 90 -117 114
-85 50 -166 62 -268 39z"/>
<path d="M8007 8818 l-355 -411 96 -83 c52 -46 99 -81 103 -78 5 2 100 111
213 242 112 130 268 311 345 401 78 90 140 169 138 175 -2 6 -44 46 -94 88
l-91 78 -355 -412z"/>
<path d="M1991 8840 c-138 -148 -251 -274 -251 -279 0 -5 4 -11 9 -13 5 -1 36
-28 68 -58 32 -31 119 -111 193 -179 74 -69 164 -152 200 -186 146 -138 318
-295 323 -295 3 0 119 122 257 271 l253 271 -69 64 c-38 35 -72 63 -76 64 -3
0 -80 -79 -169 -175 -139 -150 -164 -173 -178 -163 -9 7 -46 41 -82 76 -36 34
-74 68 -83 75 -17 12 -5 27 124 167 l141 153 -67 61 c-37 33 -70 61 -73 61 -3
0 -66 -64 -139 -142 -73 -79 -136 -144 -140 -147 -4 -2 -45 32 -91 75 l-84 78
124 133 c68 73 143 153 166 178 l42 45 -37 38 c-20 21 -53 52 -74 68 l-36 29
-251 -270z"/>
<path d="M5050 9009 c-683 -67 -1342 -329 -1879 -748 -352 -273 -650 -610
-882 -993 -635 -1049 -689 -2376 -143 -3472 185 -370 390 -654 688 -952 298
-298 575 -498 947 -685 468 -234 963 -358 1499 -376 1157 -38 2257 480 2974
1401 427 548 688 1217 747 1914 15 179 6 602 -15 762 -88 638 -318 1206 -691
1705 -591 792 -1447 1292 -2445 1431 -137 19 -655 27 -800 13z m695 -349 c706
-84 1327 -365 1852 -839 332 -300 630 -717 807 -1131 338 -792 352 -1684 39
-2475 -73 -183 -180 -397 -197 -393 -7 2 -225 136 -485 298 -438 274 -470 296
-452 310 10 8 73 53 140 99 67 46 214 158 329 250 227 183 280 221 333 244 51
21 106 73 119 112 30 92 -51 197 -260 333 -68 45 -157 128 -445 417 -364 366
-513 498 -703 623 -48 31 -90 62 -95 69 -46 72 -206 262 -302 358 -238 239
-497 416 -807 554 -109 49 -401 150 -478 166 l-34 8 64 -72 c305 -337 459
-586 486 -785 l6 -43 -88 -22 c-167 -42 -384 -140 -537 -243 -105 -70 -244
-186 -348 -289 l-100 -98 -927 581 c-510 319 -931 584 -936 589 -20 18 220
305 402 481 544 524 1242 840 2007 908 122 11 487 5 610 -10z m-2275 -2260
c492 -309 894 -566 893 -570 -2 -5 -34 -57 -73 -116 -39 -59 -87 -135 -106
-170 -20 -35 -39 -64 -43 -64 -4 0 -27 20 -51 46 -67 68 -206 159 -343 224
-209 100 -449 169 -728 210 -147 22 -457 45 -467 36 -3 -4 187 -200 423 -436
l430 -430 -430 -430 -430 -430 88 0 c196 0 539 50 751 110 357 101 647 264
779 440 l44 58 79 -86 c250 -272 605 -501 969 -621 206 -68 340 -95 628 -126
57 -7 59 -7 53 -33 -13 -53 -117 -249 -178 -334 -88 -121 -230 -280 -359 -400
-61 -56 -106 -104 -101 -106 14 -4 200 71 327 133 372 180 642 426 764 697
l30 65 83 18 c93 19 288 82 373 120 l56 24 569 -356 569 -356 -27 -36 c-503
-680 -1222 -1138 -2031 -1295 -302 -59 -684 -75 -976 -41 -625 72 -1200 311
-1690 701 -141 113 -396 368 -509 509 -330 414 -553 892 -656 1405 -45 223
-61 398 -61 640 0 242 16 417 61 640 61 305 173 622 306 867 43 80 46 82 67
69 12 -8 425 -267 917 -576z m3657 -611 c66 -25 122 -109 123 -183 0 -60 -35
-123 -89 -158 -39 -25 -54 -29 -98 -25 -95 7 -163 85 -163 187 0 128 117 221
227 179z"/>
<path d="M8785 8435 c-143 -46 -386 -122 -540 -170 -154 -48 -282 -89 -284
-91 -2 -2 14 -25 36 -51 21 -26 58 -74 82 -105 24 -32 47 -58 51 -58 4 0 50
16 101 35 52 19 94 35 95 35 1 0 19 -24 40 -52 22 -29 70 -92 107 -140 37 -48
67 -91 67 -96 0 -4 -25 -44 -55 -87 -30 -44 -55 -83 -55 -88 0 -10 153 -215
161 -216 3 -1 35 45 70 102 35 56 173 275 306 486 144 227 240 388 235 395
-28 46 -139 185 -147 185 -5 -1 -127 -38 -270 -84z m24 -322 c-45 -65 -94
-135 -108 -155 -14 -20 -30 -36 -35 -34 -13 3 -134 158 -135 171 -1 10 350
146 358 139 2 -2 -34 -56 -80 -121z"/>
<path d="M1429 8152 l-67 -128 37 -34 c43 -40 131 -123 354 -334 92 -88 175
-165 185 -172 9 -7 14 -15 11 -19 -4 -3 -177 33 -385 80 -209 47 -386 87 -394
88 -9 1 -38 -43 -81 -123 l-67 -125 516 -87 c285 -47 538 -90 565 -95 32 -7
50 -6 56 1 4 6 35 63 69 126 l60 115 -76 81 c-43 44 -142 150 -222 234 -170
181 -315 334 -420 442 l-75 78 -66 -128z"/>
<path d="M9130 7462 c-272 -108 -497 -197 -499 -198 -2 -2 13 -45 32 -96 20
-51 41 -105 46 -120 l10 -27 98 39 c563 224 537 214 526 197 -4 -7 -107 -136
-228 -287 -122 -152 -228 -285 -235 -296 -12 -19 -8 -35 30 -130 24 -60 46
-112 49 -116 4 -5 90 25 191 66 102 40 325 128 495 195 171 68 313 126 316
129 8 8 -82 243 -90 238 -5 -3 -126 -51 -516 -205 -55 -21 -101 -38 -103 -36
-2 2 105 138 238 302 207 256 240 302 235 323 -10 40 -87 220 -94 219 -3 0
-229 -89 -501 -197z"/>
<path d="M1615 4296 c-99 -40 -319 -128 -490 -195 -171 -68 -313 -126 -316
-129 -8 -8 82 -243 90 -238 5 3 126 51 516 205 55 21 101 38 103 36 2 -2 -105
-138 -238 -302 -207 -256 -240 -302 -235 -323 15 -58 89 -221 99 -217 6 3 232
92 501 198 270 106 492 194 494 195 2 2 -13 45 -32 96 -20 51 -41 105 -46 120
l-10 27 -98 -39 c-54 -22 -179 -71 -278 -111 -203 -80 -255 -100 -255 -95 0 2
108 138 240 302 132 164 240 303 240 309 0 19 -88 229 -96 231 -5 1 -90 -31
-189 -70z"/>
<path d="M8611 3586 c-4 -6 -35 -63 -69 -126 l-60 -115 76 -81 c43 -44 142
-150 222 -234 144 -154 264 -281 415 -437 l78 -83 67 128 67 127 -36 34 c-20
19 -70 66 -111 105 -41 39 -150 143 -243 230 -92 88 -175 165 -185 172 -9 7
-14 15 -11 19 4 3 177 -33 385 -80 209 -47 386 -87 394 -88 9 -1 38 43 81 123
l67 125 -516 87 c-285 47 -538 90 -565 95 -32 7 -50 6 -56 -1z"/>
<path d="M2128 3368 c-25 -40 -155 -246 -288 -458 -134 -212 -252 -399 -262
-416 l-18 -31 72 -94 c39 -52 72 -95 74 -97 1 -2 123 35 270 81 148 47 395
124 549 172 154 48 282 89 284 91 2 2 -14 25 -36 51 -21 26 -58 74 -82 106
-24 31 -47 57 -51 57 -4 0 -50 -16 -101 -35 -52 -19 -94 -35 -95 -35 -1 0 -19
24 -40 53 -22 28 -70 91 -107 139 -37 48 -67 91 -67 96 0 4 25 44 55 87 30 44
55 83 55 88 0 10 -153 215 -161 216 -3 1 -26 -32 -51 -71z m48 -584 c35 -43
63 -84 63 -89 1 -6 -59 -33 -131 -59 -73 -27 -155 -57 -181 -68 -27 -10 -47
-14 -45 -8 8 26 214 309 222 307 6 -2 38 -39 72 -83z"/>
<path d="M7980 2689 l-253 -271 69 -64 c38 -35 72 -63 76 -64 3 0 80 79 169
175 139 150 164 173 178 163 9 -7 46 -41 82 -76 36 -34 74 -68 83 -75 17 -12
5 -27 -124 -167 l-141 -153 67 -61 c37 -33 70 -61 73 -61 3 0 66 64 139 142
73 79 136 144 140 147 4 2 45 -32 91 -75 l84 -78 -124 -133 c-68 -73 -143
-153 -166 -178 l-42 -45 37 -38 c20 -21 53 -52 74 -68 l36 -29 251 270 c138
148 251 274 251 279 0 5 -4 11 -9 13 -5 2 -36 28 -68 58 -32 31 -119 111 -193
179 -74 69 -164 152 -200 186 -146 138 -318 295 -323 295 -3 0 -119 -122 -257
-271z"/>
<path d="M2837 2453 c-47 -54 -145 -168 -219 -253 -73 -85 -193 -224 -266
-309 -73 -84 -131 -158 -129 -165 2 -6 44 -46 94 -88 l91 -78 355 411 354 412
-81 70 c-44 39 -88 77 -97 84 -15 13 -27 3 -102 -84z"/>
<path d="M3216 2103 c-3 -93 -8 -197 -11 -233 -3 -36 -5 -73 -5 -82 0 -15 -9
-18 -50 -18 -76 0 -150 -33 -204 -90 -158 -169 -137 -375 52 -514 73 -53 446
-265 454 -258 11 11 528 923 528 932 0 10 -62 48 -190 117 -31 16 -26 23 -132
-167 -45 -80 -82 -147 -84 -148 -4 -6 -123 63 -127 73 -3 9 5 180 16 352 l5
72 -115 65 c-64 36 -119 66 -123 66 -4 0 -11 -75 -14 -167z m80 -540 c34 -14
174 -94 174 -100 0 -6 -90 -166 -127 -226 l-23 -37 -58 32 c-177 98 -205 156
-132 271 41 65 100 86 166 60z"/>
<path d="M7440 2183 c-104 -14 -274 -115 -365 -215 -50 -56 -109 -156 -117
-199 -2 -9 49 -100 111 -203 86 -140 119 -185 130 -181 17 7 340 203 355 216
9 8 -73 149 -86 149 -4 0 -31 -15 -60 -34 -101 -63 -91 -64 -137 13 -23 38
-41 77 -41 85 0 26 74 100 125 125 72 36 139 33 203 -8 60 -38 100 -85 170
-200 126 -206 119 -352 -21 -417 -81 -37 -134 -30 -193 28 l-32 30 -101 -63
c-56 -35 -101 -67 -101 -71 0 -16 75 -90 117 -115 112 -65 235 -65 375 1 187
89 288 232 288 409 0 122 -37 224 -136 379 -112 174 -244 262 -404 271 -30 2
-66 2 -80 0z"/>
<path d="M6620 1785 c-95 -29 -445 -132 -528 -155 -35 -10 -67 -22 -72 -26 -4
-5 4 -49 18 -97 l26 -88 30 7 c17 4 120 33 228 65 108 33 201 59 206 59 7 0
71 -206 76 -244 0 -5 -64 -29 -144 -53 -80 -23 -168 -50 -196 -58 l-51 -16 24
-87 c14 -48 26 -88 27 -90 3 -2 181 47 299 84 43 13 84 24 91 24 10 0 64 -162
69 -209 2 -14 -13 -20 -213 -77 -143 -40 -250 -74 -250 -79 0 -5 51 -180 54
-182 1 -1 24 5 51 13 68 21 405 119 542 158 62 17 115 34 118 38 3 3 -13 68
-35 144 -23 77 -61 207 -85 289 -187 644 -174 605 -193 604 -10 -1 -51 -12
-92 -24z"/>
<path d="M4067 1794 c-2 -2 0 -32 4 -66 5 -35 33 -281 64 -548 30 -267 59
-496 63 -509 6 -21 19 -27 102 -46 52 -12 104 -25 115 -28 17 -6 61 55 332
462 172 258 315 475 318 483 5 12 -22 21 -122 46 -70 17 -131 29 -135 26 -4
-3 -29 -43 -55 -89 -26 -47 -52 -85 -57 -85 -26 0 -342 83 -347 91 -3 6 -7 38
-8 72 -2 54 -4 77 -10 122 0 6 -25 16 -53 23 -29 6 -88 20 -130 30 -43 11 -79
18 -81 16z m416 -508 c54 -13 100 -26 103 -28 3 -4 -175 -317 -192 -337 -9
-10 -12 12 -18 139 -4 74 -9 161 -13 193 -7 67 -14 65 120 33z"/>
<path d="M5422 1572 l-73 -3 5 -87 c3 -48 8 -248 12 -444 l6 -358 -109 -1
c-93 -1 -192 -5 -215 -8 -4 -1 -5 -20 -3 -43 2 -24 4 -67 4 -96 l1 -54 418 7
c229 4 433 8 452 9 l35 2 -1 49 c-1 28 -2 71 -3 98 l-1 47 -160 0 -160 0 -1
103 c0 56 -2 120 -4 142 -1 22 -4 146 -5 275 -2 129 -6 264 -9 300 l-6 65 -55
0 c-30 0 -88 -1 -128 -3z"/>
</g>
</svg>
